<svg width="910" height="843" viewBox="0 0 910 843" fill="none" xmlns="http://www.w3.org/2000/svg">
<path d="M715 380C817.173 380 900 297.173 900 195C900 92.8273 817.173 10 715 10C612.827 10 530 92.8273 530 195C530 297.173 612.827 380 715 380Z" stroke="#FFC300" stroke-width="20"/>
<path d="M715 84V306" stroke="#FFC300" stroke-width="20" stroke-linecap="round"/>
<path d="M770.5 148.75C770.5 123.207 745.653 102.5 715 102.5C684.347 102.5 659.5 123.207 659.5 148.75C659.5 174.293 684.347 195 715 195C745.653 195 770.5 215.707 770.5 241.25C770.5 266.793 745.653 287.5 715 287.5C684.347 287.5 659.5 266.793 659.5 241.25" stroke="#FFC300" stroke-width="20" stroke-linecap="round"/>
<path d="M557.934 508.201H242.065C235.074 508.201 229.407 513.869 229.407 520.86C229.407 527.851 235.074 533.519 242.065 533.519H557.936C564.927 533.519 570.594 527.851 570.594 520.86C570.594 513.869 564.925 508.201 557.934 508.201Z" fill="#0B2154"/>
<path d="M110.104 565.587H63.3208C56.3298 565.587 50.6621 571.255 50.6621 578.246C50.6621 585.237 56.3298 590.905 63.3208 590.905H110.104C133.222 590.905 152.717 606.723 158.334 628.105H66.5631C59.5722 628.105 53.9044 633.772 53.9044 640.763C53.9044 647.754 59.5722 653.422 66.5631 653.422H172.618C179.609 653.422 185.277 647.754 185.277 640.763C185.278 599.31 151.555 565.587 110.104 565.587Z" fill="#0B2154"/>
<path d="M689.895 590.905H736.678C743.669 590.905 749.337 585.237 749.337 578.246C749.337 571.255 743.669 565.587 736.678 565.587H689.895C648.444 565.587 614.721 599.31 614.721 640.763C614.721 647.754 620.388 653.422 627.379 653.422H733.434C740.425 653.422 746.093 647.754 746.093 640.763C746.093 633.772 740.425 628.105 733.434 628.105H641.665C647.282 606.723 666.777 590.905 689.895 590.905Z" fill="#0B2154"/>
<path d="M774.166 509.952C756.422 491.407 732.327 481.194 706.316 481.194C705.177 481.194 704.042 481.348 702.945 481.652L662.264 492.891L602.334 377.758C591.604 357.146 564.997 341 541.763 341H258.235C234.998 341 208.393 357.146 197.664 377.758L137.734 492.891L97.0522 481.652C95.9551 481.348 94.8209 481.194 93.6816 481.194C67.6705 481.194 43.5733 491.407 25.8309 509.952C8.08845 528.496 -1.05283 553.02 0.0965833 579.082L9.28343 762.243C9.621 768.979 15.1824 774.269 21.9269 774.269H26.1465V829.545C26.1465 836.536 31.8142 842.204 38.8052 842.204H171.993C178.984 842.204 184.652 836.536 184.652 829.545V812.245C184.652 805.254 178.984 799.586 171.993 799.586C165.002 799.586 159.335 805.254 159.335 812.245V816.886H51.4622V774.269H748.535V816.886H640.664V812.245C640.664 805.254 634.997 799.586 628.006 799.586C621.015 799.586 615.347 805.254 615.347 812.245V829.545C615.347 836.536 621.015 842.204 628.006 842.204H761.194C768.185 842.204 773.853 836.536 773.853 829.545V774.269H778.072C784.817 774.269 790.378 768.981 790.716 762.243L799.904 579.007C801.052 553.02 791.911 528.496 774.166 509.952ZM774.615 577.814L766.033 748.95H33.9662L25.387 577.89C24.5481 558.872 31.2016 540.96 44.1253 527.456C56.6726 514.342 73.6319 506.949 92.0343 506.534L140.735 519.989C140.765 519.998 140.796 520.006 140.828 520.014L188.06 533.063C194.796 534.925 201.77 530.972 203.632 524.232C205.493 517.494 201.541 510.522 194.801 508.66L162.688 499.789L220.122 389.451C226.536 377.13 244.346 366.321 258.236 366.321H541.764C555.654 366.321 573.465 377.13 579.879 389.451L637.312 499.789L605.2 508.66C598.46 510.522 594.507 517.494 596.369 524.232C598.231 530.972 605.203 534.923 611.941 533.063L707.967 506.534C726.369 506.951 743.328 514.343 755.875 527.456C768.797 540.96 775.451 558.872 774.615 577.814Z" fill="#0B2154"/>
<path d="M706.316 455.879H750.415C757.406 455.879 763.074 450.211 763.074 443.22C763.074 436.229 757.406 430.561 750.415 430.561H706.316C699.325 430.561 693.657 436.229 693.657 443.22C693.657 450.211 699.325 455.879 706.316 455.879Z" fill="#0B2154"/>
<path d="M49.582 455.879H93.6816C100.673 455.879 106.34 450.211 106.34 443.22C106.34 436.229 100.673 430.561 93.6816 430.561H49.582C42.5911 430.561 36.9233 436.229 36.9233 443.22C36.9233 450.211 42.5911 455.879 49.582 455.879Z" fill="#0B2154"/>
<path d="M540.402 664.482H259.597C252.606 664.482 246.938 670.15 246.938 677.141V710.974C246.938 717.965 252.606 723.632 259.597 723.632C266.588 723.632 272.255 717.965 272.255 710.974V689.8H527.744V710.974C527.744 717.965 533.411 723.632 540.402 723.632C547.393 723.632 553.061 717.965 553.061 710.974V677.141C553.061 670.15 547.393 664.482 540.402 664.482Z" fill="#0B2154"/>
<path d="M470.201 601.032C477.192 601.032 482.859 595.364 482.859 588.373C482.859 581.382 477.192 575.714 470.201 575.714H329.797C322.806 575.714 317.138 581.382 317.138 588.373C317.138 595.364 322.806 601.032 329.797 601.032H470.201Z" fill="#0B2154"/>
</svg>
