<svg width="1431" height="256" viewBox="0 0 1431 256" fill="none" xmlns="http://www.w3.org/2000/svg">
<path d="M17.5781 63.0547H41.0156V207H17.5781V63.0547ZM115.234 207H90.4297L63.2812 154.852C62.8906 154.852 62.4349 154.917 61.9141 155.047C61.5234 155.047 60.8724 155.047 59.9609 155.047C59.0495 155.047 57.6823 155.047 55.8594 155.047C54.1667 155.047 51.888 155.047 49.0234 155.047V137.859H62.3047C65.1693 137.859 68.0339 137.404 70.8984 136.492C73.763 135.451 76.3672 133.823 78.7109 131.609C81.0547 129.396 82.9427 126.336 84.375 122.43C85.8073 118.393 86.5234 113.445 86.5234 107.586C86.5234 105.242 86.1979 102.573 85.5469 99.5781C84.8958 96.4531 83.5286 93.5234 81.4453 90.7891C79.4922 87.9245 76.6927 85.5807 73.0469 83.7578C69.401 81.8047 64.5833 80.8281 58.5938 80.8281H49.0234V63.0547H58.9844C65.1042 63.0547 71.1589 64.0312 77.1484 65.9844C83.138 67.9375 88.4766 70.8672 93.1641 74.7734C97.9818 78.6797 101.823 83.4323 104.688 89.0312C107.682 94.5 109.18 100.685 109.18 107.586C109.18 118.003 106.771 126.857 101.953 134.148C97.1354 141.44 90.625 146.844 82.4219 150.359L115.234 207ZM127.945 134.344C127.945 122.755 129.312 112.534 132.047 103.68C134.911 94.6953 138.818 87.1432 143.766 81.0234C148.844 74.7734 154.768 70.0208 161.539 66.7656C168.44 63.3802 175.927 61.4271 184 60.9062V80.4375C179.573 80.9583 175.406 82.3255 171.5 84.5391C167.594 86.7526 164.208 90.0078 161.344 94.3047C158.479 98.6016 156.201 104.07 154.508 110.711C152.815 117.352 151.904 125.229 151.773 134.344C151.904 143.589 152.815 151.531 154.508 158.172C156.201 164.682 158.479 170.151 161.344 174.578C164.339 179.005 167.789 182.391 171.695 184.734C175.602 186.948 179.703 188.25 184 188.641V207.977C176.057 207.456 168.635 205.568 161.734 202.312C154.833 198.927 148.844 194.174 143.766 188.055C138.818 181.805 134.911 174.188 132.047 165.203C129.312 156.219 127.945 145.932 127.945 134.344ZM191.812 60.9062C199.755 61.2969 207.112 63.1849 213.883 66.5703C220.784 69.9557 226.708 74.7734 231.656 81.0234C236.734 87.1432 240.706 94.6953 243.57 103.68C246.435 112.534 247.867 122.755 247.867 134.344C247.867 145.932 246.435 156.219 243.57 165.203C240.706 174.188 236.734 181.805 231.656 188.055C226.708 194.174 220.849 198.927 214.078 202.312C207.307 205.568 199.885 207.456 191.812 207.977V188.641C196.24 188.12 200.406 186.753 204.312 184.539C208.219 182.195 211.604 178.875 214.469 174.578C217.333 170.151 219.612 164.682 221.305 158.172C222.997 151.531 223.909 143.589 224.039 134.344C223.909 125.099 222.997 117.221 221.305 110.711C219.612 104.07 217.268 98.6016 214.273 94.3047C211.409 89.8776 208.023 86.5573 204.117 84.3438C200.211 82 196.109 80.6328 191.812 80.2422V60.9062ZM382.844 207H358.625L321.32 99.1875L283.625 207H259.211L309.602 63.25H332.844L382.844 207ZM334.211 161.297L339.875 177.117H302.57L308.039 161.297H334.211ZM397.898 63.0547H421.336V207H397.898V63.0547ZM441.258 63.0547C453.367 63.0547 463.979 65.0078 473.094 68.9141C482.339 72.6901 489.956 77.7682 495.945 84.1484C502.065 90.5286 506.622 97.8203 509.617 106.023C512.612 114.096 514.109 122.43 514.109 131.023C514.109 142.872 512.807 153.029 510.203 161.492C507.729 169.826 504.539 176.857 500.633 182.586C496.727 188.185 492.299 192.612 487.352 195.867C482.534 199.122 477.846 201.596 473.289 203.289C468.732 204.852 464.565 205.893 460.789 206.414C457.013 206.805 454.214 207 452.391 207H429.344V189.812H444.578C460.464 189.812 471.922 184.734 478.953 174.578C485.984 164.422 489.5 149.708 489.5 130.438C489.5 124.448 488.784 118.523 487.352 112.664C485.919 106.805 483.12 101.531 478.953 96.8438C474.917 92.026 469.383 88.1849 462.352 85.3203C455.32 82.3255 446.206 80.8281 435.008 80.8281H429.344V63.0547H441.258Z" fill="black"/>
<path d="M704.75 63.0547H728.188V207H704.75V63.0547ZM748.109 63.0547C760.219 63.0547 770.831 65.0078 779.945 68.9141C789.19 72.6901 796.807 77.7682 802.797 84.1484C808.917 90.5286 813.474 97.8203 816.469 106.023C819.464 114.096 820.961 122.43 820.961 131.023C820.961 142.872 819.659 153.029 817.055 161.492C814.581 169.826 811.391 176.857 807.484 182.586C803.578 188.185 799.151 192.612 794.203 195.867C789.385 199.122 784.698 201.596 780.141 203.289C775.583 204.852 771.417 205.893 767.641 206.414C763.865 206.805 761.065 207 759.242 207H736.195V189.812H751.43C767.315 189.812 778.773 184.734 785.805 174.578C792.836 164.422 796.352 149.708 796.352 130.438C796.352 124.448 795.635 118.523 794.203 112.664C792.771 106.805 789.971 101.531 785.805 96.8438C781.768 92.026 776.234 88.1849 769.203 85.3203C762.172 82.3255 753.057 80.8281 741.859 80.8281H736.195V63.0547H748.109ZM837.969 63.0547H861.406V207H837.969V63.0547ZM935.625 207H910.82L883.672 154.852C883.281 154.852 882.826 154.917 882.305 155.047C881.914 155.047 881.263 155.047 880.352 155.047C879.44 155.047 878.073 155.047 876.25 155.047C874.557 155.047 872.279 155.047 869.414 155.047V137.859H882.695C885.56 137.859 888.424 137.404 891.289 136.492C894.154 135.451 896.758 133.823 899.102 131.609C901.445 129.396 903.333 126.336 904.766 122.43C906.198 118.393 906.914 113.445 906.914 107.586C906.914 105.242 906.589 102.573 905.938 99.5781C905.286 96.4531 903.919 93.5234 901.836 90.7891C899.883 87.9245 897.083 85.5807 893.438 83.7578C889.792 81.8047 884.974 80.8281 878.984 80.8281H869.414V63.0547H879.375C885.495 63.0547 891.549 64.0312 897.539 65.9844C903.529 67.9375 908.867 70.8672 913.555 74.7734C918.372 78.6797 922.214 83.4323 925.078 89.0312C928.073 94.5 929.57 100.685 929.57 107.586C929.57 118.003 927.161 126.857 922.344 134.148C917.526 141.44 911.016 146.844 902.812 150.359L935.625 207ZM951.852 63.0547H975.68V207H951.852V63.0547ZM1035.84 142.156H983.688V126.141H1035.84V142.156ZM983.688 189.227H1041.89V207H983.688V189.227ZM1041.89 63.0547V80.8281H983.688V63.0547H1041.89ZM1175.89 207H1151.67L1114.37 99.1875L1076.67 207H1052.26L1102.65 63.25H1125.89L1175.89 207ZM1127.26 161.297L1132.92 177.117H1095.62L1101.09 161.297H1127.26ZM1190.16 63.0547H1213.99L1252.66 151.922V188.055H1246.41L1213.99 107.977V207H1190.16V63.0547ZM1299.34 63.0547H1323.17V207H1299.34V107.977L1267.12 188.055H1260.67V152.312L1299.34 63.0547Z" fill="black"/>
<path d="M598.003 63.2246V70.4316H578.667V128H568.033V70.4316H548.697V63.2246H598.003ZM602.053 95.3047C602.053 90.0898 602.669 85.4902 603.899 81.5059C605.188 77.4629 606.946 74.0645 609.172 71.3105C611.458 68.498 614.124 66.3594 617.171 64.8945C620.276 63.3711 623.645 62.4922 627.278 62.2578V71.0469C625.286 71.2812 623.411 71.8965 621.653 72.8926C619.895 73.8887 618.372 75.3535 617.083 77.2871C615.794 79.2207 614.768 81.6816 614.006 84.6699C613.245 87.6582 612.835 91.2031 612.776 95.3047C612.835 99.4648 613.245 103.039 614.006 106.027C614.768 108.957 615.794 111.418 617.083 113.41C618.43 115.402 619.983 116.926 621.741 117.98C623.499 118.977 625.344 119.562 627.278 119.738V128.439C623.704 128.205 620.364 127.355 617.258 125.891C614.153 124.367 611.458 122.229 609.172 119.475C606.946 116.662 605.188 113.234 603.899 109.191C602.669 105.148 602.053 100.52 602.053 95.3047ZM630.794 62.2578C634.368 62.4336 637.678 63.2832 640.725 64.8066C643.831 66.3301 646.497 68.498 648.723 71.3105C651.008 74.0645 652.796 77.4629 654.085 81.5059C655.374 85.4902 656.018 90.0898 656.018 95.3047C656.018 100.52 655.374 105.148 654.085 109.191C652.796 113.234 651.008 116.662 648.723 119.475C646.497 122.229 643.86 124.367 640.813 125.891C637.766 127.355 634.426 128.205 630.794 128.439V119.738C632.786 119.504 634.661 118.889 636.419 117.893C638.176 116.838 639.7 115.344 640.989 113.41C642.278 111.418 643.303 108.957 644.065 106.027C644.827 103.039 645.237 99.4648 645.296 95.3047C645.237 91.1445 644.827 87.5996 644.065 84.6699C643.303 81.6816 642.249 79.2207 640.901 77.2871C639.612 75.2949 638.088 73.8008 636.331 72.8047C634.573 71.75 632.727 71.1348 630.794 70.959V62.2578Z" fill="black"/>
<path d="M574.841 142.225V149.432H555.505V207H544.87V149.432H525.534V142.225H574.841ZM629.691 142.225V207H619.145V177.82H594.711V170.613H619.145V142.225H629.691ZM580.385 142.225H591.107V207H580.385V142.225ZM639.103 142.225H649.825V207H639.103V142.225ZM676.896 177.82H653.429V170.613H676.896V177.82ZM653.429 199.002H679.62V207H653.429V199.002ZM679.62 142.225V150.223H653.429V142.225H679.62Z" fill="black"/>
</svg>
