<svg width="903" height="902" viewBox="0 0 903 902" fill="none" xmlns="http://www.w3.org/2000/svg">
<path d="M557.934 567.2H242.065C235.074 567.2 229.406 572.868 229.406 579.859C229.406 586.85 235.074 592.518 242.065 592.518H557.935C564.926 592.518 570.594 586.85 570.594 579.859C570.594 572.868 564.925 567.2 557.934 567.2Z" fill="#0B2154"/>
<path d="M110.104 624.586H63.3208C56.3298 624.586 50.6621 630.254 50.6621 637.245C50.6621 644.236 56.3298 649.904 63.3208 649.904H110.104C133.222 649.904 152.717 665.722 158.334 687.104H66.5631C59.5722 687.104 53.9044 692.771 53.9044 699.762C53.9044 706.753 59.5722 712.421 66.5631 712.421H172.618C179.609 712.421 185.277 706.753 185.277 699.762C185.278 658.309 151.555 624.586 110.104 624.586Z" fill="#0B2154"/>
<path d="M689.895 649.904H736.678C743.669 649.904 749.337 644.236 749.337 637.245C749.337 630.254 743.669 624.586 736.678 624.586H689.895C648.444 624.586 614.721 658.309 614.721 699.762C614.721 706.753 620.388 712.421 627.379 712.421H733.434C740.425 712.421 746.093 706.753 746.093 699.762C746.093 692.771 740.425 687.104 733.434 687.104H641.665C647.282 665.722 666.777 649.904 689.895 649.904Z" fill="#0B2154"/>
<path d="M774.166 568.951C756.422 550.406 732.327 540.193 706.316 540.193C705.177 540.193 704.042 540.347 702.945 540.651L662.264 551.89L602.334 436.757C591.604 416.145 564.997 399.999 541.763 399.999H258.235C234.998 399.999 208.393 416.145 197.664 436.757L137.734 551.89L97.0522 540.651C95.9551 540.347 94.8209 540.193 93.6816 540.193C67.6705 540.193 43.5733 550.406 25.8309 568.951C8.08845 587.495 -1.05283 612.019 0.0965833 638.081L9.28343 821.242C9.621 827.978 15.1824 833.268 21.9269 833.268H26.1465V888.544C26.1465 895.535 31.8142 901.203 38.8052 901.203H171.993C178.984 901.203 184.652 895.535 184.652 888.544V871.244C184.652 864.253 178.984 858.585 171.993 858.585C165.002 858.585 159.335 864.253 159.335 871.244V875.885H51.4622V833.268H748.535V875.885H640.664V871.244C640.664 864.253 634.997 858.585 628.006 858.585C621.015 858.585 615.347 864.253 615.347 871.244V888.544C615.347 895.535 621.015 901.203 628.006 901.203H761.194C768.185 901.203 773.853 895.535 773.853 888.544V833.268H778.072C784.817 833.268 790.378 827.98 790.716 821.242L799.904 638.006C801.052 612.019 791.911 587.495 774.166 568.951ZM774.615 636.813L766.033 807.949H33.9662L25.387 636.889C24.5481 617.871 31.2016 599.959 44.1253 586.455C56.6726 573.341 73.6319 565.948 92.0343 565.533L140.735 578.988C140.765 578.997 140.796 579.005 140.828 579.013L188.06 592.062C194.796 593.924 201.77 589.971 203.632 583.231C205.493 576.493 201.541 569.521 194.801 567.659L162.688 558.788L220.122 448.45C226.536 436.129 244.346 425.32 258.236 425.32H541.764C555.654 425.32 573.465 436.129 579.879 448.45L637.312 558.788L605.2 567.659C598.46 569.521 594.507 576.493 596.369 583.231C598.231 589.971 605.203 593.922 611.941 592.062L707.967 565.533C726.369 565.95 743.328 573.342 755.875 586.455C768.797 599.959 775.451 617.871 774.615 636.813Z" fill="#0B2154"/>
<path d="M706.316 514.878H750.415C757.406 514.878 763.074 509.21 763.074 502.219C763.074 495.228 757.406 489.56 750.415 489.56H706.316C699.325 489.56 693.657 495.228 693.657 502.219C693.657 509.21 699.325 514.878 706.316 514.878Z" fill="#0B2154"/>
<path d="M49.582 514.878H93.6816C100.673 514.878 106.34 509.21 106.34 502.219C106.34 495.228 100.673 489.56 93.6816 489.56H49.582C42.5911 489.56 36.9233 495.228 36.9233 502.219C36.9233 509.21 42.5911 514.878 49.582 514.878Z" fill="#0B2154"/>
<path d="M540.402 723.481H259.597C252.606 723.481 246.938 729.149 246.938 736.14V769.973C246.938 776.964 252.606 782.631 259.597 782.631C266.588 782.631 272.255 776.964 272.255 769.973V748.799H527.744V769.973C527.744 776.964 533.411 782.631 540.402 782.631C547.393 782.631 553.061 776.964 553.061 769.973V736.14C553.061 729.149 547.393 723.481 540.402 723.481Z" fill="#0B2154"/>
<path d="M470.201 660.031C477.192 660.031 482.859 654.363 482.859 647.372C482.859 640.381 477.192 634.713 470.201 634.713H329.797C322.806 634.713 317.138 640.381 317.138 647.372C317.138 654.363 322.806 660.031 329.797 660.031H470.201Z" fill="#0B2154"/>
<path d="M527.783 81.9859L498.164 131.2C486.026 151.369 492.451 177.217 512.62 189.355L610.403 248.753C630.572 260.892 656.419 254.467 668.558 234.298L668.895 233.737L722.456 263.438C724.716 264.249 726.815 264.413 728.593 263.285L742.652 256.36L743.116 272.025C743.597 273.964 744.886 276.387 746.5 277.359L793.293 305.52C795.068 307.138 797.813 307.141 799.591 306.013L806.217 302.308L806.691 309.737C807.173 311.676 808.461 314.1 810.075 315.071L814.11 317.499C831.213 328.342 851.069 333.697 870.932 333.563C875.777 333.731 880.464 330.508 882.892 326.473C884.834 323.247 885.324 319.694 884.36 315.817C884.2 315.171 883.878 313.879 883.718 313.233C873.89 295.779 859.861 280.741 842.918 270.545L808.226 249.666C806.452 248.049 803.707 248.045 801.929 249.173L795.142 252.233L794.668 244.803C794.832 242.704 792.898 240.441 791.284 239.47L697.979 185.414L698.177 185.085C704.004 175.403 705.957 163.941 703.227 152.955C700.496 141.97 693.403 132.756 684.367 126.769L585.938 67.53C565.769 55.3914 539.922 61.8162 527.783 81.9859ZM781.418 249.468L782.046 263.034C782.528 264.972 783.817 267.396 785.43 268.367C787.205 269.985 789.95 269.988 791.728 268.86L804.009 263.063L835.474 282C850.803 291.225 863.544 303.839 871.597 319.676C871.597 319.676 872.243 319.515 871.758 320.321C871.112 320.482 871.112 320.482 870.465 320.643C852.54 320.296 835.59 315.589 820.261 306.364L819.454 305.878L818.987 292.959C818.505 291.02 817.217 288.596 815.603 287.625C813.828 286.008 811.083 286.004 809.305 287.132L797.024 292.929L755.878 268.166L755.1 245.718C754.618 243.78 753.33 241.356 751.716 240.384C749.942 238.767 747.197 238.764 745.419 239.892L725.219 249.715L675.84 222.196L690.892 197.186L781.418 249.468ZM578.494 78.986L676.923 138.223C683.538 142.753 688.375 148.412 690.302 156.166C692.23 163.92 690.766 171.831 686.881 178.285L657.263 227.499C649.009 241.215 631.562 245.551 617.847 237.297L520.064 177.9C512.803 173.53 508.452 167.064 506.685 159.957C504.918 152.849 505.736 145.099 508.814 138.159L538.432 88.9452C542.963 82.3299 548.621 77.4934 556.375 75.566C564.129 73.637 572.04 75.1012 578.494 78.986Z" fill="#24D3EB"/>
<path d="M535.134 139.163C529.308 148.845 532.36 161.122 542.041 166.948L549.302 171.318C554.143 174.231 559.794 174.885 564.963 173.6C570.779 172.155 574.82 169.092 577.733 164.251L593.271 138.433C596.184 133.593 596.838 127.941 595.553 122.772C594.107 116.957 591.045 112.916 586.204 110.002L578.457 106.439C568.776 100.612 556.499 103.664 550.672 113.345L535.134 139.163ZM571.985 116.281L579.246 120.651C582.473 122.593 583.597 127.117 581.655 130.343L566.117 156.161C564.175 159.388 559.652 160.512 556.425 158.57L549.164 154.2C547.55 153.229 546.583 152.098 546.101 150.159C545.78 148.867 545.944 146.768 546.915 145.155L562.292 118.691C564.234 115.463 568.757 114.339 571.985 116.281Z" fill="#24D3EB"/>
<path d="M503.624 274.61C502.66 270.733 499.433 268.791 495.556 269.755C491.679 270.718 489.737 273.945 490.701 277.822C518.649 390.256 631.603 455.487 747.268 426.736C751.145 425.773 753.087 422.546 752.123 418.669C751.159 414.792 747.932 412.85 744.055 413.813C635.498 440.797 529.805 379.936 503.624 274.61Z" fill="#24D3EB"/>
<path d="M535.933 266.579C534.969 262.702 531.742 260.76 527.865 261.724C523.988 262.687 522.046 265.914 523.01 269.791C546.461 364.133 641.666 418.682 739.238 394.428C743.115 393.465 745.057 390.238 744.093 386.361C743.129 382.484 739.902 380.542 736.025 381.506C645.561 403.992 557.617 353.812 535.933 266.579Z" fill="#24D3EB"/>
<path d="M555.317 261.76C573.95 336.716 653.019 381.555 731.205 362.119C735.082 361.156 737.024 357.929 736.061 354.052C735.097 350.175 731.87 348.233 727.993 349.197C656.914 366.865 585.106 326.397 568.241 258.549C567.277 254.671 564.05 252.729 560.173 253.693C556.296 254.655 554.354 257.883 555.317 261.76Z" fill="#24D3EB"/>
</svg>
