<?xml version="1.0" standalone="no"?>
<!DOCTYPE svg PUBLIC "-//W3C//DTD SVG 20010904//EN"
 "http://www.w3.org/TR/2001/REC-SVG-20010904/DTD/svg10.dtd">
<svg version="1.0" xmlns="http://www.w3.org/2000/svg"
 width="512.000000pt" height="512.000000pt" viewBox="0 0 512.000000 512.000000"
 preserveAspectRatio="xMidYMid meet">
<metadata>
Created by potrace 1.14, written by Peter Selinger 2001-2017
</metadata>
<g transform="translate(0.000000,512.000000) scale(0.100000,-0.100000)"
fill="#000000" stroke="none">
<path d="M2307 3594 c-2 -2 -28 -6 -58 -9 -52 -5 -95 -11 -149 -21 -14 -2 -47
-6 -75 -9 -60 -6 -77 -9 -90 -16 -5 -3 -27 -5 -47 -5 -21 1 -38 -1 -38 -4 0
-3 -8 -6 -17 -6 -10 -1 -45 -5 -78 -9 -33 -4 -69 -9 -80 -11 -11 -1 -20 -3
-20 -4 0 -1 -9 -3 -20 -4 -11 -2 -42 -6 -70 -11 -27 -4 -61 -9 -75 -10 -14 -2
-25 -4 -25 -5 0 -1 -11 -3 -25 -5 -27 -4 -258 -42 -300 -49 -14 -3 -52 -10
-85 -15 -33 -6 -71 -13 -85 -16 -35 -7 -101 -17 -130 -20 -14 -2 -25 -4 -25
-5 0 -3 -56 -9 -100 -10 -37 -2 -57 4 -153 47 -20 9 -39 17 -42 18 -3 1 -20 8
-37 14 -18 7 -33 17 -33 22 0 5 -9 9 -19 9 -11 0 -23 5 -26 10 -4 6 -11 8 -16
5 -5 -4 -9 -1 -9 4 0 6 -8 11 -18 11 -10 0 -22 4 -28 9 -5 6 -20 12 -34 14
-14 3 -36 8 -50 11 -14 3 -49 8 -79 11 -29 3 -57 8 -62 10 -40 25 60 -150 125
-219 15 -15 25 -34 22 -42 -12 -32 -230 -320 -246 -326 -6 -2 -6 -17 1 -42 6
-21 13 -47 15 -57 2 -11 6 -29 9 -41 3 -13 12 -66 21 -118 15 -87 35 -130 60
-130 3 0 26 -13 51 -30 24 -16 46 -30 48 -30 9 0 210 -134 213 -142 2 -4 9 -8
17 -8 7 0 18 -7 25 -15 22 -26 27 -8 15 52 -23 111 -7 240 40 333 68 134 225
248 365 266 19 2 47 6 63 8 15 2 27 0 27 -3 0 -4 18 -6 40 -5 23 0 43 -3 46
-8 3 -4 10 -6 15 -3 5 4 9 1 9 -5 0 -6 4 -9 8 -6 8 5 142 -59 152 -73 3 -3 26
-22 52 -41 26 -19 48 -39 49 -45 1 -5 63 -68 138 -139 100 -95 152 -136 196
-156 32 -15 65 -26 72 -23 7 3 13 1 13 -4 0 -5 10 -9 23 -8 12 1 27 0 32 -4 6
-3 19 -6 30 -7 11 -1 47 -5 80 -8 56 -5 94 -9 203 -21 99 -12 129 -15 162 -21
19 -3 49 -8 65 -10 42 -7 65 -11 100 -20 17 -3 38 -6 48 -6 9 0 17 -2 17 -6 0
-4 19 -8 42 -10 23 -1 45 -6 48 -10 3 -5 14 -8 25 -8 38 -1 95 -16 95 -26 0
-5 5 -6 11 -3 5 4 22 2 37 -3 33 -12 137 -43 154 -46 22 -3 78 -31 78 -38 0
-4 -12 -3 -27 2 -16 5 -55 11 -88 15 -33 3 -73 7 -90 10 -43 6 -179 17 -255
20 -36 2 -65 4 -65 5 0 5 -601 6 -609 2 -5 -3 -35 -7 -65 -8 -62 -3 -133 -11
-171 -19 -85 -18 -105 -23 -105 -25 0 -2 -54 -11 -72 -12 -7 -1 -13 -4 -13 -8
0 -3 -9 -6 -19 -7 -27 -2 -124 -57 -129 -73 -4 -10 0 -11 14 -4 11 5 452 10
1039 11 561 1 1025 2 1032 3 7 0 -9 28 -36 63 -139 185 -121 465 43 632 61 63
120 107 129 98 4 -3 7 -1 7 5 0 7 8 12 18 12 10 0 22 4 27 9 26 25 267 37 284
14 3 -4 15 -10 25 -11 43 -8 120 -58 181 -117 125 -123 175 -282 140 -449 -9
-43 -22 -88 -28 -100 -34 -63 -73 -122 -84 -129 -7 -4 -13 -13 -13 -20 0 -9
99 -12 420 -11 232 1 424 4 427 8 4 3 19 39 34 78 29 73 27 87 -10 88 -24 0
-2 62 88 245 30 61 58 113 63 116 16 10 -2 34 -40 54 -20 10 -45 25 -54 33 -9
8 -21 11 -27 8 -5 -3 -11 -2 -13 3 -1 4 -84 48 -183 97 -99 49 -181 92 -183
96 -2 5 -10 8 -17 8 -7 0 -48 17 -91 39 -119 58 -269 123 -316 136 -5 2 -11 4
-15 5 -5 2 -12 4 -18 5 -5 2 -12 4 -15 5 -11 4 -47 11 -85 17 -58 9 -387 8
-475 -1 -41 -4 -86 -9 -100 -10 -13 -1 -45 8 -70 20 -83 40 -135 62 -140 61
-3 -1 -20 9 -38 21 -18 13 -38 25 -45 26 -7 1 -41 16 -77 33 -104 50 -288 132
-420 188 -99 41 -132 53 -170 61 -34 7 -207 13 -213 8z m201 -175 c20 -7 51
-18 67 -25 17 -7 34 -12 39 -12 5 0 12 -4 15 -9 3 -4 81 -46 173 -93 92 -47
166 -89 165 -95 -2 -12 -14 -14 -108 -18 -41 -2 -79 -5 -84 -8 -20 -11 -508 1
-625 15 -25 3 -70 8 -100 11 -58 5 -92 10 -150 19 -42 7 -93 15 -140 21 -19 2
-48 8 -65 12 -16 4 -32 7 -35 8 -15 3 -79 16 -100 20 -14 3 -36 8 -50 11 -14
3 -33 7 -42 8 -10 1 -20 5 -24 8 -3 4 -12 4 -20 1 -8 -3 -14 0 -14 6 0 6 12
12 28 12 32 2 51 4 117 14 28 4 59 9 70 10 11 2 40 6 65 9 46 7 127 20 190 32
19 3 49 8 65 10 17 2 44 6 60 9 17 2 30 4 30 5 0 2 51 10 90 14 17 2 30 5 30
6 0 1 27 4 60 6 33 3 61 6 62 8 8 7 200 -5 231 -15z m-1678 -249 c0 -5 -8 -11
-17 -14 -16 -5 -152 -42 -171 -47 -22 -5 -43 -14 -97 -39 -53 -25 -82 -46
-147 -104 -12 -10 -31 -14 -55 -12 -21 3 -38 5 -38 6 0 1 -20 4 -44 6 -25 3
-46 6 -47 7 -5 5 92 125 110 137 23 15 46 19 121 24 33 2 71 7 85 10 14 4 54
8 90 11 36 2 65 5 65 6 0 1 19 3 43 4 24 1 45 4 47 6 7 8 55 7 55 -1z m3510
-224 c0 4 6 2 13 -4 6 -5 77 -43 157 -83 80 -40 148 -78 152 -83 4 -6 8 -7 8
-3 0 5 13 -1 29 -12 16 -12 34 -21 41 -21 6 0 8 -5 4 -11 -3 -6 -15 -9 -25 -6
-11 3 -19 0 -19 -6 0 -8 -3 -8 -11 0 -7 7 -20 8 -34 3 -12 -4 -28 -4 -35 0 -8
5 -21 5 -31 0 -9 -5 -19 -7 -21 -4 -3 2 -16 7 -28 9 -24 5 -27 7 -150 122 -41
39 -90 83 -107 98 -47 39 -41 49 12 19 25 -13 45 -22 45 -18z"/>
<path d="M855 2876 c-120 -39 -205 -120 -250 -241 -37 -99 -17 -250 47 -342
33 -49 98 -113 114 -113 6 0 17 -7 24 -15 7 -9 15 -13 18 -10 3 3 11 0 19 -6
7 -6 13 -8 13 -5 0 4 9 2 20 -4 21 -11 129 -15 168 -6 46 10 67 19 93 37 14
10 28 16 31 14 2 -3 32 22 66 54 90 86 117 148 117 271 0 87 -3 101 -32 160
-68 139 -187 215 -339 218 -38 1 -87 -5 -109 -12z"/>
<path d="M3650 2880 c-8 -4 -39 -18 -68 -31 -63 -27 -129 -95 -161 -164 -12
-27 -27 -58 -32 -68 -5 -9 -11 -49 -14 -87 -7 -116 29 -215 105 -290 49 -47
115 -90 140 -90 12 0 30 -5 41 -10 26 -14 184 -14 184 0 0 1 11 4 24 6 14 2
32 11 41 19 9 8 21 15 27 15 5 0 31 20 56 44 158 154 173 373 37 532 -39 45
-104 93 -152 110 -46 18 -202 27 -228 14z"/>
<path d="M35 2002 c-3 -3 -5 -18 -5 -33 0 -26 3 -28 30 -25 17 2 30 0 30 -5 0
-5 11 -4 25 1 15 6 25 6 25 0 0 -5 13 -5 32 1 21 6 34 5 36 0 2 -6 12 -7 28
-1 14 6 24 6 24 0 0 -5 13 -5 32 1 21 6 34 5 36 0 2 -6 12 -7 28 -1 14 6 24 6
24 0 0 -5 13 -5 32 1 21 6 34 5 36 0 2 -6 12 -7 28 -1 14 6 24 6 24 0 0 -5 12
-5 28 0 16 4 36 4 45 -2 10 -5 17 -5 17 0 0 5 16 8 35 8 19 -1 35 -4 35 -8 0
-4 15 -2 32 3 21 6 34 5 36 0 2 -6 12 -7 28 -1 14 6 24 6 24 0 0 -5 13 -5 32
1 21 6 34 5 36 0 2 -6 12 -7 28 -1 14 6 24 6 24 0 0 -5 12 -5 28 -1 15 5 37 4
50 0 13 -5 21 -5 18 -1 -5 9 147 8 162 -2 7 -4 12 -3 12 1 0 10 132 9 149 -1
6 -4 11 -3 11 2 0 10 92 8 109 -2 6 -4 11 -3 11 2 0 10 92 8 109 -2 6 -4 11
-3 11 2 0 10 92 8 109 -2 6 -4 11 -3 11 2 0 10 92 8 109 -2 6 -4 11 -3 11 1 0
10 132 9 149 -1 6 -4 11 -3 11 2 0 10 92 8 109 -2 6 -4 11 -3 11 2 0 10 92 8
109 -2 6 -4 11 -3 11 2 0 10 92 8 109 -2 6 -4 11 -3 11 2 0 10 92 8 109 -2 6
-4 11 -3 11 2 0 10 92 8 109 -2 6 -4 11 -3 11 2 0 10 92 8 109 -2 6 -4 11 -3
11 2 0 10 92 8 109 -2 6 -4 11 -3 11 2 0 10 92 8 109 -2 6 -4 11 -3 11 2 0 10
92 8 109 -2 6 -4 11 -3 11 2 0 10 92 8 109 -2 6 -4 11 -3 11 2 0 10 92 8 109
-2 6 -4 11 -3 11 2 0 10 92 8 109 -2 6 -4 11 -3 11 2 0 10 92 8 109 -2 6 -4
11 -3 11 2 0 10 92 8 109 -2 6 -4 11 -3 11 2 0 10 92 8 109 -2 6 -4 11 -4 11
1 0 4 271 8 603 7 331 0 608 2 615 4 13 4 17 51 5 53 -23 5 -4953 5 -4958 1z"/>
<path d="M890 1822 c0 -4 -188 -7 -418 -6 -229 0 -423 -2 -429 -4 -7 -2 -13
-16 -13 -31 l0 -26 1760 0 c995 0 1760 4 1760 9 0 5 6 4 13 -1 14 -10 127 -11
144 0 6 4 14 4 16 0 3 -5 63 -7 134 -6 70 2 135 3 143 3 8 0 80 0 160 0 80 0
152 0 160 0 50 0 257 0 265 0 6 1 25 -1 43 -3 17 -2 32 1 32 5 0 5 8 4 18 -1
10 -5 24 -6 32 -1 8 5 21 5 31 -1 12 -6 20 -5 24 1 5 8 12 7 22 -1 11 -9 16
-10 22 -1 4 7 12 8 21 2 9 -5 19 -5 26 1 8 7 14 6 19 -1 4 -7 12 -7 26 0 13 8
19 7 19 0 0 -7 6 -7 21 0 15 9 24 8 35 -1 8 -6 14 -10 15 -8 8 44 6 60 -10 68
-9 5 -23 6 -31 1 -7 -4 -24 -4 -37 1 -12 5 -23 5 -23 1 0 -8 -189 -6 -197 2
-3 2 -15 1 -27 -4 -13 -4 -29 -4 -39 1 -9 6 -17 6 -17 2 0 -8 -205 -7 -227 2
-7 2 -13 1 -13 -3 0 -8 -126 -6 -147 3 -7 2 -13 1 -13 -3 0 -8 -126 -6 -147 3
-7 2 -13 1 -13 -3 0 -8 -126 -6 -147 3 -7 2 -13 0 -13 -4 0 -9 -86 -5 -102 5
-4 3 -8 2 -8 -3 0 -8 -254 -7 -277 1 -7 3 -13 2 -13 -2 0 -8 -166 -6 -180 3
-5 3 -10 3 -10 -2 0 -9 -134 -8 -149 2 -6 3 -11 3 -11 -2 0 -8 -199 -8 -207 1
-3 2 -15 1 -27 -4 -13 -4 -29 -4 -39 1 -9 6 -17 6 -17 2 0 -9 -165 -7 -180 2
-5 3 -10 3 -10 -2 0 -8 -199 -8 -207 1 -3 2 -15 1 -27 -4 -13 -4 -29 -4 -39 1
-9 6 -17 6 -17 2 0 -9 -165 -7 -180 2 -5 3 -10 3 -10 -2 0 -8 -199 -8 -207 1
-3 2 -15 1 -27 -4 -13 -4 -29 -4 -39 1 -9 6 -17 6 -17 2 0 -9 -165 -7 -180 2
-5 3 -10 3 -10 -2 0 -8 -194 -8 -208 1 -4 2 -14 1 -22 -4 -7 -4 -24 -4 -37 1
-12 5 -23 5 -23 1 0 -8 -225 -6 -238 2 -4 3 -14 1 -22 -4 -7 -4 -24 -4 -37 1
-12 5 -23 5 -23 1 0 -8 -165 -6 -187 2 -7 3 -13 2 -13 -2z"/>
</g>
</svg>
